<?xml version="1.0" encoding="utf-8"?>
<svg version="1.1" baseProfile="basic" id="Layer_1"
	 xmlns="http://www.w3.org/2000/svg" xmlns:xlink="http://www.w3.org/1999/xlink" x="0px" y="0px" viewBox="0 0 87 150"
	 xml:space="preserve">
<path  fill="#ffffff" d="M27.8,0.3c0.7,2.7,1.6,5.1,2.7,7.3c1,2.2,2.1,4.2,3.1,6c1.5,3.3,3.6,6.1,6.2,8.7l4.3,3.7l6,5.1l10.9,9
	c8.4,7.7,13.4,16.4,15.1,26.2c0.4,2.3,0.7,5,0.7,7.8c0.1,2.9-0.2,5.9-0.9,9.2c-0.6,2.5-1.1,4.6-1.4,6.3c-0.3,1.7-0.9,3.6-1.7,5.7
	l-3,0.7l1.9-9.7c0.2-1.3,0.4-2.7,0.5-4c0.2-1.3,0.3-2.7,0.3-4.2l-0.4-5.7l-0.2-2.4l-0.7-4.1l-1.4-3.2l-2.5-4.6
	c-2.1-4-5.2-7.4-9.1-10.3c-3.7-3.3-7.5-5.5-11.3-6.7c-2.1-0.7-4.3-1.3-6.6-1.6c-2.2-0.3-4.2-0.4-5.9-0.1L48.9,121
	c0.7,4.2-0.1,8.5-2.4,12.9c-1.3,3.3-4.2,6.6-8.9,9.8c-3.9,3-8.2,4.9-12.9,5.7c-4.2,0.7-7.8,0.2-10.8-1.5c-3.2-1.5-5.2-4.3-5.9-8.5
	c-0.4-2.1-0.4-4.2-0.2-6.2c0.3-2.1,1-4.2,2.2-6.2c1.1-1.8,2.3-3.7,3.8-5.5c1.5-1.8,3.3-3.5,5.3-5c4.2-2.8,8.2-4.5,11.8-5.2
	c5-0.9,6.5-0.7,9,0l-12.6-72L20.8,1.5L27.8,0.3z"/>
</svg>
