<?xml version="1.0" encoding="utf-8"?>
<!-- Generator: Adobe Illustrator 24.0.1, SVG Export Plug-In . SVG Version: 6.00 Build 0)  -->
<svg version="1.1" baseProfile="basic" id="Layer_1"
	 xmlns="http://www.w3.org/2000/svg" xmlns:xlink="http://www.w3.org/1999/xlink" x="0px" y="0px" viewBox="0 0 544.1 693.3"
	 xml:space="preserve">
<g>
	<path opacity="0.2" d="M519.4,281.3c-3.6-16.4-27.9-38.5-39.7-40.5c-13.8-2.3-81.5,73.4-81.3,83.5c0,0.8,0.2,1.7,0.4,2.6
		c0,0,0,0,0,0c-0.3-1.5-57.4,52.9-93.4,87.4c-13.9-6.3-36.2-13.7-39.5-21.1c-4-9-9.3-94.7-9.3-94.7l-13.7-7.3
		c-13-9-27.5-55.5-27.5-55.5s-6-9-11-11c15,3,44,91,110,84s50-50,44-71s-26-29-39-31s-31.8-6.3-47.5-38.5c0,0,22.5,1.5,30.5-17.5
		c1,0,6.5,1.5,14,1c26.9-1.8,43-23,43-23s-14-28-38-31c-23.2-2.9-34.7,9.6-35.5,10.5c-1-0.5-2-0.9-3-1.2c-3.4-1.3-9.4-3-15.6-2.2
		c-0.8,0.1-1.7,0.1-2.5,0.2c-3.6-11.4-21.1-17.6-21.1-17.6s0.6-22.1,5.1-25.6c4.4-3.5,22.2-0.4,23.9-14.3
		c3.4-28.8-66.3-27.2-67.9-13.1c-2.8,23.8,17,18.1,22.2,24.8c5.2,6.7,0,18.9-0.7,23.1c-0.4,2.1-9.2-1.6-24.3-0.1
		c-14.9,1.5-28.9,8.1-29.8,6.3c-1.8-3.7-8-15.1-6-22.4c2.1-7.3,19-13.5,14.4-29.1c-5.4-18.5-78.5,1.2-67.9,28
		c7.2,18.3,25,5.8,30.6,10.1c5.6,4.3,8.2,24.1,8.2,24.1l-0.6-3.6c0,0-18,14-27.9,36.5l1.7,2.4c2.6,3,3.8,5.1,3.8,5.1l-3.8-5.1
		c-7.2-8.5-25.1-24.3-58.2-22.9c-45,2-53,38-53,38s20.5,33.5,58.5,29.5s49-15,49-15c11,38,31,54,42,87c12.2,36.6,29.9,110.1,23,130
		c-9,26-38,18-64,41c-20.9,18.5-49,62.3-55.5,93.8c-11.5,4.5-22.9,11.3-33.3,22.4C-14,588.8,12.4,664,60.5,701.2
		c33.9,26.3,79.8,36.8,115.2,27.3c0,0,0,0,0,0c104.9,14.4,165.2-22.4,165.2-22.4s22-82.4-4-146.2l0,0c-1.1-1.3-2.2-2.7-3.2-4
		c-6.2-8.1-9.8-14.8-9.8-14.8l13,18.8c10.4,12.6,26.1,26.1,43,22.2c30-7,58-164,58-164l-33-13c-1,28-39,107-46,107
		c-4.1,0-15.4-29.8-26.2-55.9c21.4-21.3,53.5-56.1,73.5-78.1l3.8-28l11,3.7c0,0-0.1,0-0.2-0.1l18.9,6.4
		C461.5,351,522.7,296.2,519.4,281.3z M130.9,497.2c9.6-15.8,19.4-25.6,24.9-32.1c3.4-4.1,20.8-40.9,53.4-51.8
		c-33.4,13.3-51.4,58.7-66.6,75C139.2,492.1,135.2,494.9,130.9,497.2L130.9,497.2z M178.5,727.7c-0.1,0-0.2,0.1-0.3,0.1
		C178.3,727.8,178.4,727.7,178.5,727.7z M183.8,725.9c-0.1,0-0.2,0.1-0.2,0.1C183.6,726,183.7,726,183.8,725.9z M181.2,726.8
		c-0.1,0-0.2,0.1-0.4,0.1C181,726.9,181.1,726.9,181.2,726.8z M208.5,710.4c0.2-0.2,0.4-0.4,0.7-0.7
		C208.9,710,208.7,710.2,208.5,710.4z M191.2,722.7c0.1-0.1,0.3-0.1,0.4-0.2C191.4,722.6,191.3,722.6,191.2,722.7z M193.5,721.5
		c0.2-0.1,0.4-0.2,0.6-0.3C193.8,721.3,193.7,721.4,193.5,721.5z M195.7,720.2c0.2-0.1,0.4-0.2,0.6-0.3
		C196.1,720,195.9,720.1,195.7,720.2z M198,718.8c0.2-0.1,0.3-0.2,0.5-0.3C198.4,718.6,198.2,718.7,198,718.8z M200.6,717
		C200.6,717,200.6,717,200.6,717C200.6,717,200.6,717,200.6,717z M202.7,715.5c0.1-0.1,0.3-0.2,0.4-0.3
		C203,715.2,202.9,715.3,202.7,715.5z M204.7,713.9c0.2-0.2,0.4-0.4,0.6-0.6C205.1,713.5,204.9,713.7,204.7,713.9z M206.6,712.2
		c0.2-0.2,0.5-0.4,0.7-0.6C207.1,711.8,206.8,712,206.6,712.2z M210.4,708.5c0.2-0.2,0.4-0.4,0.6-0.6
		C210.7,708.1,210.5,708.3,210.4,708.5z"/>
	<path fill="#8C6239" stroke="#000000" stroke-width="7" stroke-linecap="round" stroke-miterlimit="10" d="M320.9,468.9
		c-6.9-1.6-33.8-27.9-34.3-33l8.1-7.6c-87-69.8-118.1,28.4-142,54.1c-24.3,26.1-73.2,10.9-109.6,50C-4,582.8,22.4,658,70.5,695.2
		c48,37.2,120,42.9,152.1,4.8c32.3-38.4,21.9-93.5,39.5-111.1c15-15,99.4-61.6,65.2-124.2C323.9,467.6,321.7,469.1,320.9,468.9z"/>
	<g opacity="0.1">
		<path d="M162.6,472.4c10.1-10.9,21.5-34.7,37.9-53.4c-19.7,17-32.9,44.1-44.1,58.8C158.6,476.2,160.7,474.4,162.6,472.4z"/>
		<path d="M80.5,685.2c-47.1-36.5-73.4-109.5-30-160c-2.5,2.1-5,4.5-7.4,7.1C-4,582.8,22.4,658,70.5,695.2
			c48,37.2,120,42.9,152.1,4.8c0.4-0.4,0.7-0.9,1.1-1.3C188.5,726.9,124.5,719.2,80.5,685.2z"/>
		<path d="M272.1,578.9c-1.3,1.3-2.4,2.7-3.4,4.4c10.3-8,27.6-20.3,42.1-36C294.8,562.1,278,573,272.1,578.9z"/>
	</g>
	<g opacity="0.3">
		<path fill="#FFFFFF" d="M142.6,492.4c1.2-1.3,2.5-2.8,3.8-4.5c-25.7,18.5-69.8,8.5-103.4,44.5c-0.9,1-1.8,1.9-2.6,2.9
			C75.8,505.1,120,516.7,142.6,492.4z"/>
		<path fill="#FFFFFF" d="M327.2,464.8c-3.3,2.8-5.6,4.4-6.4,4.2c-6.9-1.6-33.8-27.9-34.3-33l8.1-7.6
			c-50.2-40.3-81.8-24.7-104.1,0.7c21.6-18.7,50.9-25.3,94.1,9.3l-8.1,7.6c0.6,5.1,27.5,31.4,34.3,33c0.8,0.2,3.1-1.3,6.4-4.2
			c17.8,32.6,3.5,60.8-16.5,82.5C325.3,534.6,347.9,502.6,327.2,464.8z"/>
		<path fill="#FFFFFF" d="M252.1,598.9c-17.3,17.4-7.4,71.4-38.4,109.8c3.2-2.6,6.2-5.5,8.9-8.7c30-35.6,23.2-85.6,36.1-106.7
			C255.9,595.5,253.6,597.4,252.1,598.9z"/>
	</g>
	<radialGradient id="SVGID_1_" cx="235.5597" cy="372.2562" r="291.6418" gradientUnits="userSpaceOnUse">
		<stop  offset="0.4745" style="stop-color:#FFA800"/>
		<stop  offset="1" style="stop-color:#F18400"/>
	</radialGradient>
	<path fill="url(#SVGID_1_)" stroke="#000000" stroke-width="7" stroke-linecap="round" stroke-miterlimit="10" d="M414.8,399.2
		c-1,28-39,107-46,107s-35-87-46-94s-43-16-47-25s-9.3-94.7-9.3-94.7l-13.7-7.3c-13-9-27.5-55.5-27.5-55.5s-6-9-11-11
		c15,3,44,91,110,84s50-50,44-71s-26-29-39-31s-31.8-6.3-47.5-38.5c0,0,22.5,1.5,30.5-17.5c1,0,6.5,1.5,14,1c26.9-1.8,43-23,43-23
		s-14-28-38-31s-35.5,10.5-35.5,10.5s-10.5-5.5-21-3c-3.5-11.5-21.2-17.8-21.2-17.8s0.6-22.1,5.1-25.6c4.4-3.5,22.2-0.4,23.9-14.3
		c3.4-28.8-66.3-27.2-67.9-13.1c-2.8,23.8,17,18.1,22.2,24.8c5.2,6.7,0,18.9-0.7,23.1c-0.4,2.1-9.2-1.6-24.3-0.1
		c-14.9,1.5-28.9,8.1-29.8,6.3c-1.8-3.7-8-15.1-6-22.4c2.1-7.3,19-13.5,14.4-29.1c-5.4-18.5-78.5,1.2-67.9,28
		c7.2,18.3,25,5.8,30.6,10.1c5.6,4.3,8.2,24.1,8.2,24.1l-0.6-3.6c0,0-18,14-27.9,36.5l1.7,2.4c2.6,3,3.8,5.1,3.8,5.1l-3.8-5.1
		c-7.2-8.5-25.1-24.3-58.2-22.9c-45,2-53,38-53,38s20.5,33.5,58.5,29.5s49-15,49-15c11,38,31,54,42,87c12.2,36.6,29.9,110.1,23,130
		c-9,26-38,18-64,41c-20.9,18.5-49,62.3-55.5,93.8c-1.6,7.6-1.9,14.6-0.5,20.2c3.5,14.3,23.3,33.3,42.4,48.8
		c19.6,15.9,38.6,28.2,38.6,28.2l28-38c0,0-38.1-23.5-50.9-38.3c-2.2-2.5-3.7-4.8-4.1-6.7c-1.7-8.2,3.8-20.9,11.1-32.9
		c9.6-15.8,19.4-25.6,24.9-32.1s46.6-96.8,128.8-30.9l-8.1,7.6c0.6,5.1,27.5,31.4,34.3,33c0.8,0.2,3.1-1.3,6.4-4.2
		c34.2,62.6-50.2,109.1-65.2,124.2c-17.5,17.6-7.1,72.7-39.5,111.1c-9.4,11.2-22.3,18.6-37,22.5c104.9,14.4,165.2-22.4,165.2-22.4
		s22-82.4-4-146.2l0,0c-1.1-1.3-2.2-2.7-3.2-4c-6.2-8.1-9.8-14.8-9.8-14.8l13,18.8c10.4,12.6,26.1,26.1,43,22.2c30-7,58-164,58-164
		L414.8,399.2z"/>
	<path fill="#754C24" stroke="#000000" stroke-width="7" stroke-linecap="round" stroke-miterlimit="10" d="M529.4,275.3
		c-3.6-16.4-27.9-38.5-39.7-40.5c-13.8-2.3-81.5,73.4-81.3,83.5c0.1,6.3,8.3,19.2,18.1,28l23,7.9C471.5,345,532.7,290.2,529.4,275.3
		z"/>
	<path fill="#FFFFFF" stroke="#000000" stroke-width="7" stroke-linecap="round" stroke-miterlimit="10" d="M180,110.2
		c-54.6,2.7-33.6,72.9,8.6,71C230.8,179.2,237.5,107.3,180,110.2z"/>
	<g opacity="0.3">
		<path fill="#FFFFFF" d="M274.8,99.2c-3.5-11.5-21.2-17.8-21.2-17.8s0.3-10,1.8-17.6c-2.9,0.5-5.4,0.9-6.8,2
			c-4.4,3.5-5.1,25.6-5.1,25.6s17.7,6.3,21.2,17.8c10.5-2.5,21,3,21,3s11.5-13.5,35.5-10.5c22.9,2.9,36.7,28.6,37.9,30.8
			c6.5-5.1,10.1-9.8,10.1-9.8s-14-28-38-31s-35.5,10.5-35.5,10.5S285.3,96.7,274.8,99.2z"/>
		<path fill="#FFFFFF" d="M300.8,157.6c1.3-0.7,2.6-1.6,3.8-2.6c-1.2-0.2-2-0.4-2.3-0.4C301.9,155.7,301.4,156.7,300.8,157.6z"/>
		<path fill="#FFFFFF" d="M150.7,99.6l0.6,3.6c0,0-0.2-1.6-0.6-4c-0.5,0.6-1,1.1-1.6,1.7C150.1,100.1,150.7,99.6,150.7,99.6z"/>
		<path fill="#FFFFFF" d="M329.3,200.7c-11.9-1.8-28.6-5.6-43.4-30.8c-7.4,2.7-14.1,2.3-14.1,2.3c15.7,32.2,34.5,36.5,47.5,38.5
			s33,10,39,31c3.7,12.9,11.2,34.2,0.9,50.3c23.8-16,13.6-44.4,9.1-60.3C362.3,210.7,342.3,202.7,329.3,200.7z"/>
		<path fill="#FFFFFF" d="M212.6,710c0.4-0.4,0.7-0.9,1.1-1.3c-8,6.4-17.6,11-28,13.8c3.6,0.5,7.2,0.9,10.7,1.3
			C202.4,720.1,207.9,715.5,212.6,710z"/>
		<path fill="#FFFFFF" d="M300.8,557.3c-16,14.8-32.8,25.7-38.7,31.6c-1.3,1.3-2.4,2.7-3.4,4.4C268.9,585.3,286.3,573,300.8,557.3z"
			/>
		<path fill="#FFFFFF" d="M204.3,228.7c5,2,11,11,11,11s14.5,46.5,27.5,55.5l13.7,7.3c0,0,5.3,85.7,9.3,94.7s36,18,47,25
			s39,94,46,94c1.6,0,4.8-4.1,8.8-10.7c-8.6-8.1-34.3-86.7-44.8-93.3c-11-7-43-16-47-25c-3.3-7.3-7.4-65.8-8.8-87
			C233.2,277,215.1,230.8,204.3,228.7z"/>
		<path fill="#FFFFFF" d="M183.1,391c-13.3,8.1-33,9-51.3,25.2c-3,2.7-6.2,5.9-9.5,9.6C146,405.2,172,409.9,183.1,391z"/>
		<path fill="#FFFFFF" d="M333.6,560c1,1.3,2.1,2.6,3.2,4l-13-18.8C323.8,545.2,327.5,551.9,333.6,560z"/>
		<path fill="#FFFFFF" d="M272.5,51.5c0,0.3-0.1,0.6-0.1,0.8c4.9-1.5,9.3-4.2,10.1-10.8c3.4-28.8-66.3-27.2-67.9-13.1
			c-0.1,0.9-0.2,1.8-0.2,2.6C233.9,25.2,275.2,29.2,272.5,51.5z"/>
		<path fill="#FFFFFF" d="M414.8,399.2c-0.1,3.6-0.9,8.1-2.1,13.1l25.1,9.9c0,0-20.7,116.2-45.6,153.1
			c29.1-14.3,55.6-163.1,55.6-163.1L414.8,399.2z"/>
		<path fill="#FFFFFF" d="M133.9,530.9c-2.2-2.5-3.7-4.8-4.1-6.7c-1.7-8.2,3.8-20.9,11.1-32.9c9.6-15.8,19.4-25.6,24.9-32.1
			c1.9-2.3,8.3-15.1,19.4-27.7c-17.3,15-26.9,34.8-29.4,37.7c-5.5,6.5-15.3,16.3-24.9,32.1c-7.3,12-12.8,24.7-11.1,32.9
			c0.4,1.9,1.9,4.2,4.1,6.7c12.8,14.8,50.9,38.3,50.9,38.3L155,606c1.1,0.8,1.8,1.2,1.8,1.2l28-38
			C184.8,569.2,146.7,545.7,133.9,530.9z"/>
		<path fill="#FFFFFF" d="M336.8,564L336.8,564c22,53.9,9.7,121.1,5.3,140.6c5.7-2.6,8.7-4.4,8.7-4.4s16.4-61.6,4.1-119.5
			C347.9,576.2,341.8,570,336.8,564z"/>
		<path fill="#FFFFFF" d="M66.3,115.7c33.1-1.5,51.1,14.4,58.2,22.9l-1.7-2.4c2-4.6,4.4-8.9,6.9-12.7c-9.2-8.5-26.1-19-53.4-17.8
			c-23.9,1.1-37.4,11.7-44.7,21.5C39.5,121.2,50.7,116.4,66.3,115.7z"/>
		<path fill="#FFFFFF" d="M180.5,40.9c4.6,15.6-12.3,21.8-14.4,29.1c-2.1,7.3,4.2,18.7,6,22.4c0.9,1.9,14.9-4.8,29.8-6.3
			c15.1-1.5,24,2.2,24.3,0.1c0.3-2,1.7-5.8,2.5-9.9c-4.1-0.4-9.8-0.9-16.8-0.2c-14.9,1.5-28.9,8.1-29.8,6.3c-1.8-3.7-8-15.1-6-22.4
			c2.1-7.3,19-13.5,14.4-29.1c-4.5-15.3-55.6-4.4-66.8,15.1C142.4,33.3,176.8,28.5,180.5,40.9z"/>
		<path fill="#FFFFFF" d="M124.5,138.5l3.8,5.1C128.3,143.7,127.1,141.6,124.5,138.5z"/>
	</g>
	<path opacity="0.3" fill="#FFFFFF" d="M529.4,275.3c-3.6-16.4-27.9-38.5-39.7-40.5c-6.3-1.1-23.7,14-40.8,31.7
		c13.5-13,25.8-22.6,30.8-21.7c11.9,2,36.1,24.1,39.7,40.5c1.3,5.9-7.3,17.8-19.6,30.8C517,299.6,531,282.6,529.4,275.3z"/>
	<path opacity="0.1" d="M198.6,171.1c-30.4,1.4-49.8-34.6-37.9-55.9c-28.7,16.6-8.1,67.5,27.9,65.9c12-0.5,21.1-6.7,26.7-15.2
		C210.6,168.9,205,170.8,198.6,171.1z"/>
	<path fill="#FFFFFF" stroke="#000000" stroke-width="7" stroke-linecap="round" stroke-miterlimit="10" d="M280.3,98.7
		c-41-0.9-33,63,3,63C326.3,161.7,324.3,99.7,280.3,98.7z"/>
	<path opacity="0.1" d="M293.3,151.7c-25.3,0-36.8-31.6-27.1-50.1c-24.2,12.4-14,60.1,17.1,60.1c13.3,0,22.3-6,27.1-14.2
		C305.8,150.1,300.1,151.7,293.3,151.7z"/>
	<path opacity="0.3" fill="#FFFFFF" d="M317.8,237.2c-24.9-15-38.8,1.9-42.8,8c7.3-4.6,18.1-6.8,32.8,2c2.2,1.3,4,2.5,5.3,3.6
		C324.8,250.4,335.7,247.9,317.8,237.2z"/>
	<path fill="none" stroke="#000000" stroke-width="7" stroke-linecap="round" stroke-miterlimit="10" d="M337.3,202.5
		c0,0-10.5,11.7,4.5,21.7"/>
	<path fill="none" stroke="#000000" stroke-width="7" stroke-linecap="round" stroke-miterlimit="10" d="M55.8,144.2c0,0,16,10,32,6
		"/>
	<path fill="none" stroke="#000000" stroke-width="7" stroke-linecap="round" stroke-miterlimit="10" d="M335.3,127.7c0,0-7,6-19,6"
		/>
	<path fill="#E6E6E6" stroke="#000000" stroke-width="7" stroke-linecap="round" stroke-miterlimit="10" d="M301.7,301.6
		c-14.4-1.9-35.9-7.4-48.9-16.4s-25-46.9-27.7-56.2C241.3,259.7,274.3,296.7,301.7,301.6z"/>
	<path fill="none" stroke="#000000" stroke-width="5" stroke-linecap="round" stroke-miterlimit="10" d="M164.8,556"/>
	<path fill="none" stroke="#000000" stroke-width="5" stroke-linecap="round" stroke-miterlimit="10" d="M129.8,588.2"/>
	
		<line fill="none" stroke="#000000" stroke-width="7" stroke-linecap="round" stroke-miterlimit="10" x1="87.1" y1="632.9" x2="133.3" y2="590.7"/>
	<path fill="none" stroke="#000000" stroke-width="5" stroke-linecap="round" stroke-miterlimit="10" d="M176,563.5"/>
	<path fill="none" stroke="#000000" stroke-width="5" stroke-linecap="round" stroke-miterlimit="10" d="M140.8,596.1"/>
	
		<line fill="none" stroke="#000000" stroke-width="7" stroke-linecap="round" stroke-miterlimit="10" x1="98.9" y1="640.7" x2="143.3" y2="599.7"/>
	
		<line fill="none" stroke="#000000" stroke-width="7" stroke-linecap="round" stroke-miterlimit="10" x1="433.7" y1="346.1" x2="488.8" y2="294.2"/>
	<path fill="none" stroke="#000000" stroke-width="5" stroke-linecap="round" stroke-miterlimit="10" d="M192.1,568.1"/>
	<path fill="none" stroke="#000000" stroke-width="5" stroke-linecap="round" stroke-miterlimit="10" d="M153.2,604.7"/>
	<path fill="#333333" stroke="#000000" stroke-width="7" stroke-linecap="round" stroke-miterlimit="10" d="M217.2,489.8
		c-35.1,9.5-28,72.8,21.8,63.1C274.7,545.8,265.5,476.8,217.2,489.8z"/>
	<path fill="none" stroke="#000000" stroke-width="7" stroke-linecap="round" stroke-miterlimit="10" d="M109.9,648.7
		c3.4-2,46.4-41,46.4-41"/>
	<path opacity="0.3" d="M249,542.9c-38.6,7.6-51.6-28.9-39-50.1c-26.6,15.6-17,69.1,29,60.1c8.1-1.6,13.9-6.4,17.4-12.6
		C254.2,541.4,251.7,542.3,249,542.9z"/>
	<path fill="none" stroke="#000000" stroke-width="5" stroke-linecap="round" stroke-miterlimit="10" d="M449.4,354.1"/>
	<path fill="none" stroke="#000000" stroke-width="5" stroke-linecap="round" stroke-miterlimit="10" d="M426.5,346.3"/>
	<polygon fill="#808080" stroke="#000000" stroke-width="7" stroke-linecap="round" stroke-miterlimit="10" points="412.8,396.2 
		451.8,411.2 467.8,360.2 419.8,344.2 	"/>
	<path fill="#754C24" stroke="#000000" stroke-width="7" stroke-linecap="round" stroke-miterlimit="10" d="M179,264.9
		c0,0,18.8,12.2,24.8,17.2s20,38,15,41s-24,12-25,6C192.1,319.2,179,264.9,179,264.9z"/>
	<path fill="#754C24" stroke="#000000" stroke-width="7" stroke-linecap="round" stroke-miterlimit="10" d="M268,323
		c0,0-16.7-2.3-20.7,2.7s-13,20-10,23s15,10,18,10s14.6-10.1,14.6-10.1L268,323z"/>
	<path fill="#754C24" stroke="#000000" stroke-width="7" stroke-linecap="round" stroke-miterlimit="10" d="M139.6,410.2
		c2.7-2,16.7,9.5,14.7,18.5s-19,20-22,20s-27.6,0-27.6,0S117.8,426.2,139.6,410.2z"/>
	<path fill="#754C24" stroke="#000000" stroke-width="7" stroke-linecap="round" stroke-miterlimit="10" d="M353.6,574.9
		c-0.7-3.2-15.8-1.8-17.8,5.2s6,21,3,24s-25,19-26,26s21,26,29,26s17.2-12.4,17.2-12.4S362.8,620.2,353.6,574.9z"/>
	<path fill="#754C24" stroke="#000000" stroke-width="7" stroke-linecap="round" stroke-miterlimit="10" d="M416.5,535.1
		c0,0-25.2-11.5-35.2-8.5s-16,18-15,24s6.5,23.5,14.6,26C402.1,583.4,416.5,535.1,416.5,535.1z"/>
	<path fill="#754C24" stroke="#000000" stroke-width="7" stroke-linecap="round" stroke-miterlimit="10" d="M224.3,351.7
		c4.8,2.4,14,18,14,25s-15,10-23,10s-12-22-8-25S222.3,350.7,224.3,351.7z"/>
	<circle stroke="#000000" stroke-width="5" stroke-linecap="round" stroke-miterlimit="10" cx="203.6" cy="164.9" r="6.3"/>
	<circle stroke="#000000" stroke-width="5" stroke-linecap="round" stroke-miterlimit="10" cx="280.8" cy="150.2" r="6.5"/>
	
		<line fill="none" stroke="#000000" stroke-width="7" stroke-linecap="round" stroke-miterlimit="10" x1="77.8" y1="626.2" x2="112.8" y2="654.2"/>
	<path fill="none" stroke="#000000" stroke-width="5" stroke-linecap="round" stroke-miterlimit="10" d="M191.9,568.2"/>
	<path fill="#8C6239" stroke="#000000" stroke-width="5" stroke-linecap="round" stroke-miterlimit="10" d="M286.5,435.9
		c0,0,121.8-117.3,122.2-115.1c4.6,14.8,22,26.9,22,26.9l-11-3.7l-3.8,28c-30.8,33.7-90.1,97.9-95.2,96.7
		C314,467.4,287.1,441,286.5,435.9z"/>
	<polygon fill="#808080" stroke="#000000" stroke-width="7" stroke-linecap="round" stroke-miterlimit="10" points="187.8,566.2 
		155.8,610.2 188.8,641.2 228.8,586.2 	"/>
	<g opacity="0.3">
		<path fill="#FFFFFF" d="M398.7,330.9c3.5,11.3,14.5,21,19.5,25l1.6-11.7l11,3.7c0,0-17.5-12.2-22-26.9
			c-0.4-2.2-122.2,115.1-122.2,115.1c0,0.1,0,0.2,0.1,0.3C315.8,408.2,398.4,329.1,398.7,330.9z"/>
		<path fill="#FFFFFF" d="M409.8,354.2l-3.8,28c-18.2,20-46.5,50.7-67.6,72.2c21.2-20.7,56.3-58.8,77.6-82.2l2.1-15.3L409.8,354.2z"
			/>
	</g>
	
		<line fill="none" stroke="#000000" stroke-width="7" stroke-linecap="round" stroke-miterlimit="10" x1="169.8" y1="557" x2="458.8" y2="292.2"/>
	
		<line fill="none" stroke="#000000" stroke-width="7" stroke-linecap="round" stroke-miterlimit="10" x1="181" y1="564.5" x2="494.3" y2="273.7"/>
	
		<line fill="none" stroke="#000000" stroke-width="7" stroke-linecap="round" stroke-miterlimit="10" x1="197.1" y1="569.1" x2="417.3" y2="361.7"/>
	<path fill="none" stroke="#000000" stroke-width="7" stroke-linecap="round" stroke-miterlimit="10" d="M273.8,247.2
		c0,0,14-28,44-10s-21,13-21,13"/>
</g>
</svg>
