<?xml version="1.0" encoding="utf-8"?>
<!-- Generator: Adobe Illustrator 24.0.1, SVG Export Plug-In . SVG Version: 6.00 Build 0)  -->
<svg version="1.1" baseProfile="basic" id="Layer_1"
	 xmlns="http://www.w3.org/2000/svg" xmlns:xlink="http://www.w3.org/1999/xlink" x="0px" y="0px" viewBox="0 0 459.4 379.1"
	 xml:space="preserve">
<g>
	<g>
		
			<radialGradient id="SVGID_1_" cx="328.0908" cy="250.3506" r="182.2608" gradientTransform="matrix(0.9986 -5.330416e-02 5.330416e-02 0.9986 -113.1558 -107.6729)" gradientUnits="userSpaceOnUse">
			<stop  offset="0.4745" style="stop-color:#0071BC"/>
			<stop  offset="1" style="stop-color:#0D65A6"/>
		</radialGradient>
		<path fill="url(#SVGID_1_)" d="M329.5,115.2c6.7-32.2-17-97.9-91.4-110.7C163.7-8.3,126.2,42.3,126.6,80.8
			c-58.5-28.7-114-2.3-122.8,53.5s27.9,103.9,77.6,104.8c185.1,3.2,316.6-0.1,316.6-0.1c38.4-2.1,52.6-29.4,57.4-55
			C467.2,121.3,406,78.6,329.5,115.2z"/>
		<path d="M241,244.4c-46,0-100.2-0.4-159.7-1.4c-23.6-0.4-45.1-10.9-60.7-29.4C2.8,192.4-4.8,163.3-0.2,133.7
			c4.2-26.8,18.8-47.9,41-59.5c23.6-12.3,53.2-12,82,0.5c1.7-19.9,12.4-40.3,28.9-54.3C167.2,7.2,194.9-7,238.8,0.6
			c41.9,7.2,65.3,30,77.5,47.9c12.7,18.7,19.5,41.5,18.1,60.1c37.9-16.1,74.9-14.4,100.1,5c21.2,16.3,30.3,42.2,24.9,71
			c-6.8,36.3-27.9,56.5-61.1,58.3l-0.1,0C397.3,242.9,336.6,244.4,241,244.4z M79.3,73.2c-12.4,0-24.3,2.7-34.7,8.1
			c-19.9,10.4-33,29.4-36.8,53.6c-4.3,27.3,2.6,54.1,19,73.6c14.1,16.8,33.5,26.2,54.8,26.6c181.4,3.2,313-0.1,316.4-0.1
			c29.4-1.6,47.5-19,53.6-51.7c4.8-25.8-3.1-48.8-21.9-63.2c-24.2-18.6-61-19-98.4-1.1l-7.3,3.5l1.6-7.9c3-14.5-0.7-39.2-15.9-61.4
			c-11.3-16.6-33-37.8-72.2-44.6c-40.8-7-66.3,5.9-80.5,18c-16.4,14-26.5,34.8-26.3,54.3l0.1,6.5l-5.8-2.9
			C109.6,76.9,94,73.2,79.3,73.2z"/>
	</g>
	<g>
		
			<radialGradient id="SVGID_2_" cx="327.0324" cy="384.1421" r="114.039" gradientTransform="matrix(0.9986 -5.330416e-02 5.330416e-02 0.9986 -113.1558 -107.6729)" gradientUnits="userSpaceOnUse">
			<stop  offset="0.4745" style="stop-color:#FFA800"/>
			<stop  offset="1" style="stop-color:#F18400"/>
		</radialGradient>
		<path fill="url(#SVGID_2_)" d="M183.6,143.1c0,0,7.7,113.5,4.7,118.7c-3.1,5.2-55.9-1.2-63.2,8.4
			c-9.4,12.2,102.9,106.8,109.6,106.4c6.7-0.4,115.2-101.6,109.7-109.7c-6.7-10-67.1-1.4-72.5-7.9c-5.4-6.4,2.3-114-1.2-117.2
			C267.1,138.6,183.6,143.1,183.6,143.1z"/>
		<path d="M234.4,380.6c-1.7,0-4.7-0.9-19.8-12.7c-9.8-7.7-22.2-18-34.1-28.4C165.9,326.6,131,295,122.6,279
			c-0.9-1.8-3.8-7.2-0.7-11.2c5-6.6,20.2-7.2,42.8-7.5c7.2-0.1,16.8-0.2,20.1-1c1.3-10.7-2.4-75.7-5.2-115.9l-0.3-4l4.1-0.2
			c0.2,0,21.2-1.1,42.3-1.8c44.3-1.5,46,0.1,47.7,1.6c2.5,2.3,2.9,6,1.5,51.5c-0.7,23.9-1.8,59.8,0.2,66.1c3.3,1.5,17,1.3,27.1,1.3
			c25.3-0.2,40.9,0.2,45.6,7c1.9,2.8,0.2,6.2-0.3,7.3c-6.3,12.7-41.8,47.2-56.7,61.5c-12.6,12-25.1,23.4-35.1,32.1
			c-17.1,14.8-19.1,14.9-20.7,15C234.7,380.6,234.5,380.6,234.4,380.6z M233.6,372.7L233.6,372.7L233.6,372.7z M128.5,272.3
			c0.4,3.8,10.8,19.3,49,53.7c27.2,24.6,51.1,43.2,56.9,46.2c5.8-3.5,29.5-24.2,55.4-49.2c31.4-30.2,47.6-48.9,50.3-54.6
			c-1.3-0.7-4.4-1.8-11.8-2.4c-7.6-0.6-17-0.5-26.2-0.5c-21.6,0.2-30.1-0.1-33.3-4.1c-3.4-4.1-3.5-20.6-2-71.5
			c0.5-17.4,1.1-38.6,0.5-45c-8.8-1-45.5,0.1-79.5,1.8c0.6,8.9,2,31.1,3.2,53.4c3.2,59.3,1.6,61.8,0.6,63.5
			c-2.3,3.9-8.7,4.2-26.9,4.4C153.4,268.4,132.4,268.6,128.5,272.3z M267.1,143.5L267.1,143.5C267.1,143.5,267.1,143.5,267.1,143.5z
			"/>
	</g>
</g>
</svg>
