<?xml version="1.0" encoding="utf-8"?>
<!-- Generator: Adobe Illustrator 24.0.1, SVG Export Plug-In . SVG Version: 6.00 Build 0)  -->
<svg version="1.1" baseProfile="basic" id="Layer_1"
	 xmlns="http://www.w3.org/2000/svg" xmlns:xlink="http://www.w3.org/1999/xlink" x="0px" y="0px" viewBox="0 0 168.9 263.3"
	 xml:space="preserve">
<path fill="#cccccc" d="M95.1,258.6c-15,0-29.1-1.2-30-1.3l-3.2-0.3v-3.2c0-58-1.6-122.6-4.5-131.9c-6.3-1.5-24.8,5-35,8.6
	C9.8,135,6.7,136,4.3,134.4c-2.6-1.7-1.7-4.8-0.7-8.1c3.4-11.4,16.1-42.6,26.9-68c5.8-13.7,11.3-26.4,15.6-36
	c2.2-4.9,4-8.8,5.3-11.5c2.1-4.4,3-6.2,5.5-6.2c1.5,0,1.9,0,18.1,13c10.4,8.5,22.8,18.8,34,28.3c22.8,19.4,51,44.6,56.2,53.9
	c0.5,0.9,2,3.7,0.5,6.2c-0.5,0.9-1.9,2.3-4.7,2.1c-14.6-0.8-40.8,5.6-48.1,7.7c0.1,6.3,1.7,26.3,3.2,45.7
	c5.2,65.7,6.6,89.8,4.2,93.9l-0.8,1.5l-1.7,0.3C111,258.3,103,258.6,95.1,258.6z M113.9,252.4L113.9,252.4L113.9,252.4z M69,250.6
	c8.1,0.6,30.1,1.9,45.2,0.1c0.9-10.5-2.7-57-5.2-88.5c-1-13-2-25.3-2.6-34.1c-0.3-4.7-0.5-8.2-0.6-10.6c-0.1-4-0.2-6.2,2.1-7.3
	c2.3-1.1,31.5-8.8,49.7-9c-3.6-4.8-14.8-16.8-49.1-46.3c-22.1-19-43.1-36-50.5-41.6c-7.9,16.2-41.2,94.3-47.4,114
	c2.7-0.8,6.4-2.1,9.5-3.3c18.6-6.6,33.5-11.3,40.9-8.2c3.1,1.1,5.8,3.1,7.3,71.3C68.9,214.2,69,241.5,69,250.6z"/>
</svg>
